<svg xmlns="http://www.w3.org/2000/svg" viewBox="0 0 100 100">
  <g transform="translate(50,50)" fill="#e4e4e7">
    <path d="M0,0 C-4,-18 8,-36 24,-36 C24,-18 16,-4 0,0 Z" transform="rotate(0)"/>
    <path d="M0,0 C-4,-18 8,-36 24,-36 C24,-18 16,-4 0,0 Z" transform="rotate(60)"/>
    <path d="M0,0 C-4,-18 8,-36 24,-36 C24,-18 16,-4 0,0 Z" transform="rotate(120)"/>
    <path d="M0,0 C-4,-18 8,-36 24,-36 C24,-18 16,-4 0,0 Z" transform="rotate(180)"/>
    <path d="M0,0 C-4,-18 8,-36 24,-36 C24,-18 16,-4 0,0 Z" transform="rotate(240)"/>
    <path d="M0,0 C-4,-18 8,-36 24,-36 C24,-18 16,-4 0,0 Z" transform="rotate(300)"/>
  </g>
</svg>
